<?xml version="1.0" encoding="UTF-8"?>
<svg width="320px" height="320px" viewBox="0 0 320 320" version="1.1" xmlns="http://www.w3.org/2000/svg" xmlns:xlink="http://www.w3.org/1999/xlink">
    <!-- Generator: Sketch 51.2 (57519) - http://www.bohemiancoding.com/sketch -->
    <title>Artboard</title>
    <desc>Created with Sketch.</desc>
    <defs></defs>
    <g id="Artboard" stroke="none" stroke-width="1" fill="none" fill-rule="evenodd">
        <path d="M83.9549002,158.635525 C84.3931534,158.615258 84.8208745,158.595745 85.2382411,158.576957 C85.2089712,158.513494 85.1844307,158.459484 85.1646011,158.415403 C84.7542503,158.492121 84.3511637,158.565446 83.9549002,158.635525 Z M67.5379729,160.125026 C65.4050172,160.144935 63.2370769,160.125872 60.8616885,160.125872 C52.3092718,160.125872 18.4586097,147.099404 7.55207789,133.132483 C7.55207789,133.132483 24.4843841,128.939867 24.4843841,125.397348 C24.4843841,121.854828 5.14233149,115.308151 5.14233149,115.308151 C5.14233149,115.308151 2.21179598,98.966999 22.9457237,82.6484098 C43.6796514,66.3298205 59.1953138,58.5841334 76.6316261,57.6780933 C94.0679383,56.7720532 99.9136952,56.7720532 99.9136952,56.7720532 C99.9136952,56.7720532 115.092756,36 123.066868,36 C127.053035,36 185.458937,48.5815123 190.517889,56.7720532 C195.576841,64.9625942 198.038677,64.366737 200.624228,66.3298205 C203.209779,68.2929041 201.580882,66.7230475 213.297162,69.376225 C242.603084,76.0126159 238.605265,78.6179996 260.378935,82.6484098 C269.19134,84.279628 309.574809,64.1646458 313.38419,66.1182771 C315.157901,67.0279203 316.550157,84.3282301 309.61671,95.6714951 C302.683263,107.01476 315.182537,116.385147 309.569442,130.589622 C303.956347,144.794096 315.997668,155.317336 313.38419,160.125872 C310.770711,164.934409 267.889524,144.388773 260.378935,145.874317 C253.507251,147.233491 233.707302,156.709307 194.760276,163.720824 C197.20813,166.165478 198.888296,166.329982 200.624228,167.647991 C203.209779,169.611075 201.580882,168.041218 213.297162,170.694396 C242.603084,177.330787 238.605265,179.936171 260.378935,183.966581 C269.19134,185.597799 309.574809,165.482817 313.38419,167.436448 C315.157901,168.346091 316.550157,185.646401 309.61671,196.989666 C302.683263,208.332931 315.182537,217.703318 309.569442,231.907793 C303.956347,246.112267 315.997668,256.635507 313.38419,261.444043 C310.770711,266.25258 267.889524,245.706944 260.378935,247.192488 C252.868345,248.678033 229.91368,259.8597 183.395239,266.922301 C166.646264,269.465193 149.539335,269.083796 134.452314,267.600307 C138.41198,275.263088 137.543911,282.943074 137.543911,282.943074 C137.543911,282.943074 127.921893,285.879078 110.53222,282.141231 C94.028412,278.593798 85.9453109,261.469101 85.1646011,259.733574 C74.7986213,261.671569 69.0681633,261.444043 60.8616885,261.444043 C52.3092718,261.444043 18.4586097,248.417575 7.55207789,234.450654 C7.55207789,234.450654 24.4843841,230.258038 24.4843841,226.715519 C24.4843841,223.172999 5.14233149,216.626322 5.14233149,216.626322 C5.14233149,216.626322 2.21179598,200.28517 22.9457237,183.966581 C40.0195551,170.528662 53.5548395,162.904096 67.5379729,160.125026 Z M116.212539,79.5545253 C121.509332,79.8307368 126.805986,80.1160107 131.74861,80.3949117 C133.473842,80.4922626 135.128611,80.5873273 136.703837,80.679709 C141.171149,80.9417017 144.919336,81.177392 147.797293,81.3800808 C158.624374,82.1426109 175.313116,84.6841429 188.062752,87.2639091 C207.604454,91.2179846 223.556945,97.0678571 248.887299,108.447468 C250.81893,109.315249 257.452076,112.310999 257.606318,112.380527 C259.303551,113.145582 261.225941,112.204384 261.900096,110.278302 C262.57425,108.352221 261.744881,106.170623 260.047648,105.405568 C259.898331,105.338261 253.25979,102.340074 251.321523,101.469311 C225.612835,89.9197348 209.299565,83.9375625 189.223597,79.8753834 C176.246171,77.2495262 159.323395,74.6723531 148.206929,73.8894422 C145.302305,73.6848752 141.533293,73.4478754 137.045149,73.184661 C135.465446,73.0920168 133.80641,72.9967069 132.077041,72.8991226 C127.125164,72.6196994 121.820567,72.3339978 116.516109,72.0573865 C114.659657,71.9605782 112.935776,71.8718185 111.388618,71.7930312 C110.84703,71.7654514 110.366188,71.7410868 109.951611,71.7201777 C109.531329,71.6990189 109.531329,71.6990189 109.442391,71.6945713 C106.898324,71.5673513 105.187682,74.6142976 106.364262,77.1772442 C106.409534,77.2758598 106.503661,77.4860601 106.639628,77.7982217 C106.871662,78.330941 107.131659,78.9466666 107.412598,79.6356994 C108.218583,81.6124666 109.025601,83.7688605 109.777512,86.0255149 C110.969202,89.6020418 111.904369,93.0796058 112.48562,96.3025817 C112.703145,97.5087349 112.868236,98.6655627 112.977895,99.7662834 C113.295759,102.956905 112.585473,108.465979 111.041901,115.430193 C110.496491,117.890952 109.859387,120.481967 109.149065,123.159319 C108.279108,126.438369 107.345737,129.676207 106.412553,132.726616 C106.086217,133.793347 105.783505,134.759553 105.512344,135.60716 C105.417906,135.902361 105.334309,136.161197 105.262546,136.381415 C105.220221,136.511296 105.190742,136.600996 105.177972,136.63952 C104.535327,138.579423 105.400112,140.743238 107.109524,141.472536 C108.818937,142.201833 110.725657,141.220443 111.368303,139.28054 C111.387113,139.223737 111.418819,139.127259 111.465312,138.984589 C111.541578,138.750554 111.629696,138.477717 111.728683,138.1683 C112.010166,137.288425 112.323258,136.289091 112.660095,135.188031 C113.62169,132.044754 114.583099,128.709652 115.481603,125.323003 C116.219696,122.540974 116.883701,119.840556 117.455463,117.260906 C119.182334,109.469689 119.982087,103.266701 119.549363,98.9231529 C119.416704,97.5915547 119.220297,96.2152956 118.964652,94.7977663 C118.305385,91.1422031 117.270776,87.2948478 115.963391,83.3710956 C115.517074,82.0315978 115.053647,80.7271778 114.582348,79.4698112 C115.113052,79.4972922 115.656846,79.5255476 116.212539,79.5545253 Z M85.5890342,80.2050487 C85.6418912,80.2688546 85.7628774,80.4197252 85.9421524,80.6514494 C86.253716,81.054165 86.6042732,81.5257095 86.9839696,82.0597354 C88.0760766,83.5957349 89.1703388,85.3092445 90.188111,87.1464022 C92.600364,91.5007058 94.1829784,95.8239861 94.5757277,99.7662834 C94.7905851,101.922957 94.6416394,104.544949 94.1592059,107.516315 C93.6632267,110.57111 92.8377822,113.871524 91.7746593,117.263149 C91.1265728,119.330705 90.4310569,121.302854 89.7365812,123.107821 C89.4946573,123.73659 89.2708506,124.297915 89.0712262,124.783025 C88.954528,125.066616 88.8739978,125.256872 88.8356971,125.345095 C88.0286033,127.204179 88.7023444,129.453763 90.34054,130.369683 C91.9787356,131.285602 93.9610343,130.521016 94.7681282,128.661932 C94.9826427,128.167813 95.3417161,127.295223 95.7973531,126.111006 C96.5504591,124.153657 97.3025249,122.021159 98.0055147,119.778448 C99.178188,116.037331 100.096576,112.365296 100.663061,108.876251 C101.254489,105.233569 101.443823,101.900602 101.147196,98.9231529 C100.625541,93.6869408 98.6820656,88.3778837 95.7868988,83.1518833 C94.6218688,81.0489138 93.3774143,79.1002175 92.1308047,77.346917 C91.3739882,76.2824886 90.7738306,75.5067471 90.4074511,75.0644743 C89.156583,73.5544965 87.0639146,73.4811743 85.7333455,74.9007047 C84.4027764,76.3202351 84.3381661,78.6950708 85.5890342,80.2050487 Z M116.212539,180.872696 C121.509332,181.148908 126.805986,181.434182 131.74861,181.713083 C133.473842,181.810434 135.128611,181.905498 136.703837,181.99788 C141.171149,182.259873 144.919336,182.495563 147.797293,182.698252 C158.624374,183.460782 175.313116,186.002314 188.062752,188.58208 C207.604454,192.536156 223.556945,198.386028 248.887299,209.765639 C250.81893,210.63342 257.452076,213.62917 257.606318,213.698698 C259.303551,214.463753 261.225941,213.522555 261.900096,211.596473 C262.57425,209.670392 261.744881,207.488794 260.047648,206.723739 C259.898331,206.656432 253.25979,203.658245 251.321523,202.787482 C225.612835,191.237906 209.299565,185.255733 189.223597,181.193554 C176.246171,178.567697 159.323395,175.990524 148.206929,175.207613 C145.302305,175.003046 141.533293,174.766046 137.045149,174.502832 C135.465446,174.410188 133.80641,174.314878 132.077041,174.217294 C127.125164,173.93787 121.820567,173.652169 116.516109,173.375557 C114.659657,173.278749 112.935776,173.189989 111.388618,173.111202 C110.84703,173.083622 110.366188,173.059258 109.951611,173.038349 C109.531329,173.01719 109.531329,173.01719 109.442391,173.012742 C106.898324,172.885522 105.187682,175.932469 106.364262,178.495415 C106.409534,178.594031 106.503661,178.804231 106.639628,179.116393 C106.871662,179.649112 107.131659,180.264838 107.412598,180.95387 C108.218583,182.930638 109.025601,185.087031 109.777512,187.343686 C110.969202,190.920213 111.904369,194.397777 112.48562,197.620753 C112.703145,198.826906 112.868236,199.983734 112.977895,201.084454 C113.295759,204.275076 112.585473,209.78415 111.041901,216.748364 C110.496491,219.209123 109.859387,221.800138 109.149065,224.47749 C108.279108,227.75654 107.345737,230.994378 106.412553,234.044787 C106.086217,235.111518 105.783505,236.077724 105.512344,236.925331 C105.417906,237.220532 105.334309,237.479368 105.262546,237.699586 C105.220221,237.829467 105.190742,237.919167 105.177972,237.957691 C104.535327,239.897594 105.400112,242.061409 107.109524,242.790707 C108.818937,243.520004 110.725657,242.538614 111.368303,240.598711 C111.387113,240.541908 111.418819,240.44543 111.465312,240.30276 C111.541578,240.068725 111.629696,239.795888 111.728683,239.486471 C112.010166,238.606596 112.323258,237.607262 112.660095,236.506202 C113.62169,233.362925 114.583099,230.027823 115.481603,226.641174 C116.219696,223.859145 116.883701,221.158727 117.455463,218.579077 C119.182334,210.78786 119.982087,204.584872 119.549363,200.241324 C119.416704,198.909726 119.220297,197.533467 118.964652,196.115937 C118.305385,192.460374 117.270776,188.613019 115.963391,184.689267 C115.517074,183.349769 115.053647,182.045349 114.582348,180.787982 C115.113052,180.815463 115.656846,180.843719 116.212539,180.872696 Z M85.5890342,181.52322 C85.6418912,181.587026 85.7628774,181.737896 85.9421524,181.96962 C86.253716,182.372336 86.6042732,182.84388 86.9839696,183.377906 C88.0760766,184.913906 89.1703388,186.627415 90.188111,188.464573 C92.600364,192.818877 94.1829784,197.142157 94.5757277,201.084454 C94.7905851,203.241128 94.6416394,205.86312 94.1592059,208.834486 C93.6632267,211.889281 92.8377822,215.189695 91.7746593,218.58132 C91.1265728,220.648876 90.4310569,222.621025 89.7365812,224.425992 C89.4946573,225.054761 89.2708506,225.616086 89.0712262,226.101196 C88.954528,226.384787 88.8739978,226.575043 88.8356971,226.663266 C88.0286033,228.52235 88.7023444,230.771934 90.34054,231.687854 C91.9787356,232.603773 93.9610343,231.839187 94.7681282,229.980103 C94.9826427,229.485984 95.3417161,228.613394 95.7973531,227.429177 C96.5504591,225.471828 97.3025249,223.33933 98.0055147,221.096619 C99.178188,217.355502 100.096576,213.683467 100.663061,210.194422 C101.254489,206.55174 101.443823,203.218773 101.147196,200.241324 C100.625541,195.005112 98.6820656,189.696055 95.7868988,184.470054 C94.6218688,182.367085 93.3774143,180.418388 92.1308047,178.665088 C91.3739882,177.60066 90.7738306,176.824918 90.4074511,176.382645 C89.156583,174.872667 87.0639146,174.799345 85.7333455,176.218876 C84.4027764,177.638406 84.3381661,180.013242 85.5890342,181.52322 Z M34.3429812,204.335244 C34.4185157,197.412405 39.3871551,191.826839 45.5053691,191.826839 C51.6706678,191.826839 56.6686299,197.498707 56.6686299,204.495311 C56.6686299,211.491914 51.6706678,217.163782 45.5053691,217.163782 C40.0728298,217.163782 35.5466357,212.760023 34.5474785,206.926559 C35.7090831,214.682435 41.6589443,220.587694 48.8241764,220.587694 C56.8224017,220.587694 63.3062444,213.229595 63.3062444,204.152919 C63.3062444,195.076244 56.8224017,187.718145 48.8241764,187.718145 C40.8259511,187.718145 34.3421084,195.076244 34.3421084,204.152919 C34.3421084,204.213772 34.3423998,204.274548 34.3429812,204.335244 Z M42.1865619,211.685524 C43.8528589,211.685524 45.2036594,210.152587 45.2036594,208.261613 C45.2036594,206.370639 43.8528589,204.837702 42.1865619,204.837702 C40.520265,204.837702 39.1694644,206.370639 39.1694644,208.261613 C39.1694644,210.152587 40.520265,211.685524 42.1865619,211.685524 Z M34.3429812,103.017073 C34.4185157,96.094234 39.3871551,90.5086677 45.5053691,90.5086677 C51.6706678,90.5086677 56.6686299,96.1805358 56.6686299,103.17714 C56.6686299,110.173743 51.6706678,115.845611 45.5053691,115.845611 C40.0728298,115.845611 35.5466357,111.441852 34.5474785,105.608388 C35.7090831,113.364264 41.6589443,119.269523 48.8241764,119.269523 C56.8224017,119.269523 63.3062444,111.911424 63.3062444,102.834748 C63.3062444,93.7580732 56.8224017,86.3999742 48.8241764,86.3999742 C40.8259511,86.3999742 34.3421084,93.7580732 34.3421084,102.834748 C34.3421084,102.895601 34.3423998,102.956377 34.3429812,103.017073 Z M42.1865619,110.367353 C43.8528589,110.367353 45.2036594,108.834416 45.2036594,106.943442 C45.2036594,105.052468 43.8528589,103.519531 42.1865619,103.519531 C40.520265,103.519531 39.1694644,105.052468 39.1694644,106.943442 C39.1694644,108.834416 40.520265,110.367353 42.1865619,110.367353 Z" id="Combined-Shape" fill="#3F3F3F" fill-rule="nonzero"></path>
    </g>
</svg>