<?xml version="1.0" encoding="UTF-8"?>
<svg width="1024px" height="1021px" viewBox="0 0 1024 1021" version="1.1" xmlns="http://www.w3.org/2000/svg" xmlns:xlink="http://www.w3.org/1999/xlink">
    <!-- Generator: Sketch 51.2 (57519) - http://www.bohemiancoding.com/sketch -->
    <title>Combined Shape</title>
    <desc>Created with Sketch.</desc>
    <defs></defs>
    <g id="Page-1" stroke="none" stroke-width="1" fill="none" fill-rule="evenodd">
        <g id="Logo" fill="#00416A" fill-rule="nonzero">
            <path d="M451.359231,1020.44643 C197.171098,990.45211 0,774.251944 0,512 C0,229.230208 229.230208,0 512,0 C794.769792,0 1024,229.230208 1024,512 C1024,717.922562 902.433563,895.45176 727.152485,976.735801 C709.670285,982.304225 694.223774,986.392252 680.8125,989 C667.312432,991.625013 656.437541,992.9375 648.1875,992.9375 C629.812408,992.9375 615.750049,987.593803 606,976.90625 C596.249951,966.218697 591.375,950.562603 591.375,929.9375 C591.375,925.062476 591.843745,918.875037 592.78125,911.375 C593.718755,903.874963 595.312489,894.12506 597.5625,882.125 L671.25,492.875 L620.625,492.875 L423.1875,536.75 L423.1875,577.25 L517.6875,591.875 L455.8125,901.8125 C451.687479,923.937611 448.875007,940.531195 447.375,951.59375 C445.874993,962.656305 445.125,971.937463 445.125,979.4375 C445.125,995.131327 447.203066,1008.80094 451.359231,1020.44643 Z M643.6875,225.6875 C618.187373,225.6875 597.000084,234.031167 580.125,250.71875 C563.249916,267.406333 554.8125,288.312374 554.8125,313.4375 C554.8125,334.812607 562.031178,352.249932 576.46875,365.75 C590.906322,379.250067 609.749884,386 633,386 C657.750124,386 678.562416,377.656333 695.4375,360.96875 C712.312584,344.281167 720.75,323.750122 720.75,299.375 C720.75,276.874888 713.812569,258.968817 699.9375,245.65625 C686.062431,232.343683 667.312618,225.6875 643.6875,225.6875 Z" id="Combined-Shape"></path>
        </g>
    </g>
</svg>