<?xml version="1.0" standalone="no"?>
<!DOCTYPE svg PUBLIC "-//W3C//DTD SVG 20010904//EN"
 "http://www.w3.org/TR/2001/REC-SVG-20010904/DTD/svg10.dtd">
<svg version="1.0" xmlns="http://www.w3.org/2000/svg"
 width="700.000000pt" height="700.000000pt" viewBox="0 0 700.000000 700.000000"
 preserveAspectRatio="xMidYMid meet">
<metadata>
Created by potrace 1.11, written by Peter Selinger 2001-2013
</metadata>
<g transform="translate(0.000000,700.000000) scale(0.100000,-0.100000)"
fill="#000000" stroke="none">
<path d="M3298 6995 c-2 -1 -41 -5 -88 -9 -100 -7 -225 -22 -295 -36 -27 -5
-61 -12 -75 -14 -431 -79 -908 -273 -1275 -519 -69 -46 -297 -217 -305 -228
-3 -3 -25 -23 -50 -44 -85 -70 -216 -201 -361 -361 -209 -230 -452 -625 -585
-952 -62 -151 -146 -411 -169 -520 -2 -9 -8 -37 -14 -62 -11 -49 -13 -63 -35
-195 -33 -199 -40 -299 -40 -550 -1 -179 9 -399 18 -414 2 -3 7 -37 11 -76 4
-38 8 -72 10 -75 2 -4 6 -24 9 -47 18 -151 126 -525 208 -723 243 -582 645
-1102 1135 -1467 43 -32 80 -61 81 -65 2 -5 8 -8 13 -8 6 0 38 -19 72 -43 325
-227 810 -431 1222 -513 143 -28 157 -31 229 -39 28 -4 53 -8 58 -11 11 -7 10
6 -8 83 -18 77 -25 248 -13 326 5 29 10 68 12 87 5 35 23 144 32 190 2 13 7
42 11 65 3 22 19 105 35 185 16 80 32 159 35 175 3 17 9 48 14 70 5 22 11 54
14 70 3 17 8 41 11 55 3 14 12 59 20 100 15 79 21 109 30 150 3 14 7 36 10 50
3 14 14 70 25 125 11 55 22 111 24 125 3 14 7 36 10 50 14 62 27 129 32 156 2
16 11 61 19 99 8 39 17 81 19 95 2 14 25 129 51 255 26 127 49 239 51 250 2
11 6 31 9 45 3 14 8 43 11 65 3 22 7 44 8 49 1 9 -36 18 -124 29 -25 4 -54 8
-65 10 -11 3 -42 8 -68 11 -27 4 -57 9 -66 11 -10 2 -42 6 -72 10 -30 4 -56 8
-59 10 -3 1 -30 6 -60 9 -30 4 -71 10 -90 14 l-35 8 -2 136 c-2 121 0 138 15
142 9 3 80 19 157 36 77 16 241 52 365 80 124 28 286 64 360 80 160 35 357 80
385 88 11 3 109 7 218 9 189 4 199 4 194 -14 -3 -10 -8 -34 -11 -53 -3 -19 -8
-44 -10 -55 -29 -146 -85 -440 -91 -480 -4 -22 -8 -48 -11 -57 -3 -10 -7 -30
-10 -45 -12 -67 -55 -299 -79 -423 -14 -74 -32 -169 -40 -210 -17 -90 -19 -98
-51 -270 -14 -74 -28 -146 -30 -160 -3 -14 -11 -59 -19 -100 -22 -108 -24
-119 -35 -185 -6 -33 -17 -91 -25 -130 -8 -38 -16 -81 -18 -95 -11 -60 -27
-147 -32 -170 -14 -74 -27 -138 -31 -160 -2 -14 -7 -36 -9 -50 -3 -14 -7 -43
-10 -65 -3 -22 -11 -65 -17 -95 -6 -30 -11 -107 -11 -170 0 -92 5 -128 22
-180 59 -172 179 -249 380 -244 104 2 298 39 433 80 172 54 589 292 753 431
17 16 41 35 51 43 47 36 120 96 135 110 175 165 276 271 390 410 315 387 558
865 675 1329 25 100 28 110 45 201 6 30 14 73 19 95 5 22 11 67 15 100 4 33 9
71 11 85 25 148 24 634 -1 810 -3 19 -7 56 -10 81 -3 25 -7 54 -9 65 -2 10
-11 60 -21 109 -85 456 -276 915 -543 1305 -56 82 -194 265 -211 280 -3 3 -35
38 -70 78 -479 547 -1164 944 -1888 1096 -99 21 -244 44 -393 61 -55 7 -526
16 -532 10z m1276 -1561 c170 -44 299 -174 336 -338 36 -164 5 -347 -81 -473
-64 -92 -179 -185 -272 -220 -141 -52 -331 -51 -472 3 -41 15 -121 72 -162
115 -90 92 -131 211 -127 364 5 183 77 326 225 448 25 20 51 37 56 37 6 0 16
6 22 14 14 16 126 54 196 65 68 11 207 4 279 -15z"/>
</g>
</svg>
